{"title":"Zootopia 2016 TS x264 AC3-Garmin","uid":14370172,"size":878836652,"categoryP":"video","categoryS":"movies","magnet":"?xt=urn:btih:8515ec4b70d9f8d91df3f4345c849e6f80364bde&amp;dn=Zootopia+2016+TS+x264+AC3-Garmin+++&amp;tr=udp%3A%2F%2Ftracker.leechers-paradise.org%3A6969&amp;tr=udp%3A%2F%2Fzer0day.ch%3A1337&amp;tr=udp%3A%2F%2Fopen.demonii.com%3A1337&amp;tr=udp%3A%2F%2Ftracker.coppersurfer.tk%3A6969&amp;tr=udp%3A%2F%2Fexodus.desync.com%3A6969","seeders":3,"leechers":4,"uploader":"makintos13","files":3,"time":1461156034,"description":"Zootopia 2016 TS x264 AC3-Garmin   \r\n \nhttps://imgmak.com/Tz7\r\n \nhttps://imgmak.com/Tzk\r\n \nhttps://imgmak.com/Tzm\r\n \nhttps://imgmak.com/Tzu\r\n\r\nComplete name                            : Zootopia 2016 TS x264.mkv\r\nFormat                                   : Matroska\r\nFormat version                           : Version 4 / Version 2\r\nFile size                                : 813 MiB\r\nDuration                                 : 1h 38mn\r\nOverall bit rate                         : 1 158 Kbps\r\n\r\nVideo\r\nID                                       : 1\r\nFormat                                   : AVC\r\nFormat/Info                              : Advanced Video Codec\r\nFormat profile                           :   \r\nFormat settings, CABAC                   : Yes\r\nFormat settings, ReFrames                : 5 frames\r\nCodec ID                                 : V_MPEG4/ISO/AVC\r\nDuration                                 : 1h 38mn\r\nBit rate                                 : 943 Kbps\r\nWidth                                    : 720 pixels\r\nHeight                                   : 304 pixels\r\nDisplay aspect ratio                     : 2.35:1\r\nFrame rate mode                          : Constant\r\nFrame rate                               : 29.970 fps\r\nColor space                              : YUV\r\nChroma subsampling                       : 4:2:0\r\nBit depth                                : 8 bits\r\nScan type                                : Progressive\r\nBits/(Pixel*Frame)                       : 0.144\r\nStream size                              : 662 MiB (81%)\r\nWriting library                          : x264 core 146 r2538 121396c\r\nEncoding settings                        : cabac=1 / ref=5 / deblock=1:-3:-3 / analyse=0x3:0x133 / me=hex / subme=7 / psy=1 / psy_rd=1.80:0.00\r\n/ mixed_ref=1 / me_range=16 / chroma_me=1 / trellis=1 / 8x8dct=1 / cqm=0 / deadzone=21,11 / fast_pskip=1 / chroma_qp_offset=-2 / threads=9 /\r\nlookahead_threads=1 / sliced_threads=0 / nr=0 / decimate=1 / interlaced=0 / bluray_compat=0 / constrained_intra=0 / bframes=3 / b_pyramid=2 /\r\nb_adapt=2 / b_bias=0 / direct=3 / weightb=1 / open_gop=0 / weightp=2 / keyint=250 / keyint_min=25 / scenecut=40 / intra_refresh=0 /\r\nrc_lookahead=40 / rc=crf / mbtree=1 / crf=17.0 / qcomp=0.60 / qpmin=10 / qpmax=51 / qpstep=4 / ip_ratio=1.40 / aq=2:1.50\r\n\r\nLanguage                                 : English\r\nDefault                                  : Yes\r\nForced                                   : Yes\r\nDURATION                                 : 01:38:06.402000000\r\nAudio\r\nID                                       : 2\r\nFormat                                   : AC-3\r\nFormat/Info                              : Audio Coding 3\r\nMode extension                           : CM (complete main)\r\nFormat settings, Endianness              : Big\r\nCodec ID                                 : A_AC3\r\nDuration                                 : 1h 38mn\r\nBit rate mode                            : Constant\r\nBit rate                                 : 192 Kbps\r\nChannel(s)                               : 2 channels\r\nChannel positions                        : Front: L R\r\nSampling rate                            : 44.1 KHz\r\nCompression mode                         : Lossy\r\nDelay relative to video                  : -266ms\r\nStream size                              : 135 MiB (17%)\r\nLanguage                                 : English\r\nDefault                                  : Yes\r\nForced                                   : Yes\r\n\r\nSource Video + Source Audio              : Zootopia 2016 HD-TS x264 AC3-CPG\r\nGenre                                    : Action, Adventure, Animation\r\nRelease Date                             : 4 March 2016 (USA)\r\nSample Included                          : Yes\r\nImdb                                     : http://www.imdb.com/title/tt2948356/\r\n\r\nThanks to CPG for bringing this to us. We had a friend ask us if we can do\r\na encode of zootopia. So we went ahead and did it CPG's was good but a needed\r\na little touch up to us so we touched it up a bit and spruced it. And here\r\nit is. Hope you enjoy. And as always check sample as screens always look better","torrent":{"xt":"urn:btih:8515ec4b70d9f8d91df3f4345c849e6f80364bde","amp;dn":"Zootopia+2016+TS+x264+AC3-Garmin+++","amp;tr":["udp%3A%2F%2Ftracker.leechers-paradise.org%3A6969","udp%3A%2F%2Fzer0day.ch%3A1337","udp%3A%2F%2Fopen.demonii.com%3A1337","udp%3A%2F%2Ftracker.coppersurfer.tk%3A6969","udp%3A%2F%2Fexodus.desync.com%3A6969"],"infoHash":"8515ec4b70d9f8d91df3f4345c849e6f80364bde","infoHashBuffer":{"type":"Buffer","data":[133,21,236,75,112,217,248,217,29,243,244,52,92,132,158,111,128,54,75,222]},"announce":[],"urlList":[]}}